<svg xmlns="http://www.w3.org/2000/svg" viewBox="0 0 98.36 112.41"><defs><style>.cls-1{fill:none;}.cls-2{fill:#959acd;}.cls-3{fill:#e84747;}.cls-4{fill:#53bfd3;}</style></defs><g id="katman_1" data-name="katman 1"><path class="cls-1" transform="translate(0 0)"/><g id="_2256457527968" data-name=" 2256457527968"><path class="cls-2" d="M79.2,41.08v9.41a32.78,32.78,0,0,1,3,14.86A33,33,0,1,1,62.91,34.2V28.88a37.92,37.92,0,1,0-12.4,73.24c19.19-.66,35.9-17.37,36.56-36.55A37.73,37.73,0,0,0,79.2,41.08Z" transform="translate(0 0)"/><path class="cls-3" d="M49.18,67.66a3.44,3.44,0,1,1,3.43-3.43A3.44,3.44,0,0,1,49.18,67.66Zm0-19.07A15.64,15.64,0,1,0,64.81,64.23,15.63,15.63,0,0,0,49.18,48.59Z" transform="translate(0 0)"/><path class="cls-4" d="M49.18,15a49.19,49.19,0,0,0-9.91,97.37v-4.94a44.35,44.35,0,1,1,21-.27v4.94A49.18,49.18,0,0,0,49.18,15Z" transform="translate(0 0)"/><path class="cls-4" d="M49.18,84A19.73,19.73,0,1,1,68.91,64.23,19.72,19.72,0,0,1,49.18,84ZM94,0H69.38a2.63,2.63,0,0,0-2.62,2.76l.09,1.71h-.13V43.94A26.82,26.82,0,1,0,76,65.17h0s0-1.14,0-1.25V14.82L89,17.3a2.62,2.62,0,0,0,3-1.65l4.55-12.1A2.62,2.62,0,0,0,94,0Z" transform="translate(0 0)"/></g></g></svg>